<svg xmlns="http://www.w3.org/2000/svg" xmlns:svg="http://www.w3.org/2000/svg" xmlns:xlink="http://www.w3.org/1999/xlink" id="svg2" width="256" height="256" version="1.0"><defs id="defs4"><linearGradient id="linearGradient26209"><stop style="stop-color:#b8b8b8;stop-opacity:1" id="stop26211" offset="0"/><stop style="stop-color:#b8b8b8;stop-opacity:0" id="stop26213" offset="1"/></linearGradient><linearGradient id="linearGradient2555"><stop style="stop-color:#fff;stop-opacity:1" id="stop2557" offset="0"/><stop style="stop-color:#fff;stop-opacity:0" id="stop2559" offset="1"/></linearGradient><linearGradient id="linearGradient2449" x1="-344.153" x2="-395.849" y1="274.711" y2="425.4" gradientTransform="matrix(-0.5914583,0,0,0.5914584,210.0216,142.2324)" gradientUnits="userSpaceOnUse" xlink:href="#linearGradient2555"/><linearGradient id="linearGradient26242" x1="85.985" x2="68.308" y1="76.306" y2="58.807" gradientTransform="translate(373.64199,318.34399)" gradientUnits="userSpaceOnUse" xlink:href="#linearGradient26209"/></defs><metadata id="metadata7"/><g id="layer1" transform="translate(-373.642,-318.344)"><rect id="rect1942" width="235.008" height="234.99" x="-619.146" y="328.849" rx="35.488" ry="35.488" transform="scale(-1,1)" style="fill:#79d624;fill-opacity:1;fill-rule:evenodd;stroke:none;stroke-width:.875;stroke-linecap:square;stroke-linejoin:miter;stroke-miterlimit:4;stroke-dasharray:.875,1.75;stroke-dashoffset:0;stroke-opacity:1"/><path style="fill:#000;fill-opacity:1;stroke:#000;stroke-width:1px;stroke-linecap:butt;stroke-linejoin:miter;stroke-opacity:1" id="path26201" d="m 531.22876,496.24852 0,15.71301 -5.71382,0.35711 c -8.42575,0.11346 -12.82542,13.34943 -0.71423,14.99878 4.05092,0.70698 7.97005,0.47806 13.21322,0 10.12738,-1.47787 12.1512,-2.40771 12.14187,-10.35629 -0.11904,-3.53696 -0.23809,-7.77473 -0.35712,-13.21322 -0.57632,-6.43225 -4.52996,-17.51504 -11.42765,-17.14147 -6.29772,-0.0169 -12.69503,-0.61048 -17.49857,-2.14268 -8.31679,-2.63935 -11.40374,-1.39128 -17.85569,-13.92743 -1.80072,5.06386 -3.81486,7.76792 -4.28537,12.14185 -1.19033,7.52329 -5.4863,10.07753 -11.42764,9.99919 -7.50859,-0.74183 -15.01626,-2.49096 -23.2124,-4.28536 -7.39479,-1.62821 -13.90577,-1.76245 -21.42682,-4.64248 -11.91689,-5.01293 -12.87089,-18.79617 -15.71302,-31.06891 -2.46217,-11.54237 -4.2071,-23.91303 -5.71382,-36.0685 -1.58386,-10.93054 1.96701,-18.09561 14.64166,-18.56992 l 18.21282,0.35713 c 5.0221,-0.48956 9.85742,-1.19706 9.28495,-8.21363 l -0.35711,-20.71259 c 0.5104,-1.39341 2.46441,-13.98925 16.42723,-14.28456 l 17.49858,0.71423 c 6.07367,1.02242 16.29405,2.91058 19.99837,14.28454 11.97674,0.28419 24.4602,0.0616 34.64005,2.14269 10.77989,4.21889 28.00405,1.99352 25.7122,19.28414 2.35654,0.83844 2.69783,26.86734 3.21402,50.71017 0.11129,14.46699 -0.35617,29.22336 -2.14268,44.63924 -0.0974,15.29308 -4.9038,28.70265 -9.64207,42.13942 -2.90487,8.40907 -6.85345,15.8904 -18.21281,16.78437 -11.54351,1.42211 -22.24918,1.16853 -32.85447,0.71421 -10.02008,-0.28958 -15.3331,-6.85522 -16.78436,-18.56991 l 0,-12.14187 c 0.0103,-8.07386 4.41794,-15.13301 16.78436,-20.35549 l 13.57032,0.71423 z"/><path style="fill:#79d624;fill-opacity:1;stroke:none" id="path26203" d="m 532.3001,447.50247 20.89117,0.17856 c 0.64711,-10.88375 -4.0402,-13.0038 -9.99919,-13.03465 -10.71509,1.06516 -10.29163,7.19331 -10.89198,12.85609 z"/><path style="fill:#000;fill-opacity:1;stroke:none" id="path26205" d="m 424.27317,394.64963 35.35426,-34.99716 c -2.9488,7.26131 -1.73318,20.59357 -2.32123,30.53323 0.15536,1.47638 -0.93338,2.3307 -2.67836,2.8569 -10.10368,0.44843 -19.8256,-1.39373 -30.35467,1.60703 z"/><path id="path26207" d="m 424.27317,394.64963 35.35426,-34.99716 c -2.9488,7.26131 -1.73318,20.59357 -2.32123,30.53323 0.15536,1.47638 -0.93338,2.3307 -2.67836,2.8569 -10.10368,0.44843 -19.8256,-1.39373 -30.35467,1.60703 z" style="fill:url(#linearGradient26242);fill-opacity:1;stroke:none"/><path id="path1950" d="M 557.05665,338.89518 L 446.22721,338.89518 C 416.89033,338.89518 393.27256,362.70492 393.27256,392.28025 L 393.27256,500.40761 C 394.22216,523.49366 397.87485,508.89915 404.82758,483.3329 C 412.90814,453.61975 439.22406,427.65003 471.27219,408.1872 C 495.73352,393.33195 523.11328,383.84595 572.95174,382.94353 C 601.21656,382.43177 598.72124,346.26062 557.05665,338.89518 z" style="opacity:.55364805;fill:url(#linearGradient2449);fill-opacity:1;fill-rule:evenodd;stroke:none;stroke-width:.875;stroke-linecap:square;stroke-linejoin:miter;stroke-miterlimit:4;stroke-dasharray:.875,1.75;stroke-dashoffset:0;stroke-opacity:1"/></g></svg>