<svg xmlns="http://www.w3.org/2000/svg" xmlns:xlink="http://www.w3.org/1999/xlink" width="1024" height="1024" version="1.1" viewBox="0 0 1024 1024"><title>Untitled</title><desc>Created with Sketch.</desc><g id="Page-1" fill="none" fill-rule="evenodd" stroke="none" stroke-width="1"><rect id="Rectangle" width="119" height="1020" x="452" y="2" fill="#D4130B" rx="44.737"/><rect id="Rectangle" width="119" height="1020" x="452" y="2" fill="#D4130B" rx="44.737" transform="translate(511.500000, 512.000000) rotate(135.000000) translate(-511.500000, -512.000000)"/><rect id="Rectangle" width="119" height="1020" x="452" y="2" fill="#D4130B" rx="44.737" transform="translate(511.500000, 512.000000) rotate(90.000000) translate(-511.500000, -512.000000)"/><rect id="Rectangle" width="119" height="1020" x="452" y="2" fill="#D4130B" rx="44.737" transform="translate(511.500000, 512.000000) scale(-1, -1) rotate(45.000000) translate(-511.500000, -512.000000)"/><ellipse id="Oval" cx="512" cy="512" fill="#FEDB00" stroke="#D7191A" stroke-width="77.544" rx="325" ry="325"/><path id="Path-2" stroke="#07090B" stroke-width="32.807" d="M387,596 C387,596 423.731352,662 511.437965,662 C599.144578,662 635,596.54182 635,596.54182"/><ellipse id="Oval-2" cx="386.5" cy="595" fill="#090B0E" rx="16.5" ry="17"/><path id="Oval-2" fill="#090B0E" d="M651,595.501419 C651,586.166597 643.612698,578.780884 634.5,579.004967 C625.387302,579.22905 618,586.613461 618,595.49851 C618,604.383558 625.387302,611.769272 634.5,611.994961 C643.612698,612.220651 651,604.836241 651,595.501419 Z"/><circle id="Oval-3" cx="394.5" cy="421.5" r="34.5" fill="#0B0E10"/><circle id="Oval-3" cx="630.5" cy="421.5" r="34.5" fill="#0B0E10"/></g></svg>