<svg xmlns="http://www.w3.org/2000/svg" xmlns:xlink="http://www.w3.org/1999/xlink" style="enable-background:new 0 0 48 48" id="Layer_1" width="1024" height="1024" x="0" y="0" version="1.1" viewBox="0 0 48 48" xml:space="preserve"><path style="fill:#ffc107" d="M9,42h23l10-10V9c0-1.657-1.343-3-3-3H9C7.343,6,6,7.343,6,9v30C6,40.657,7.343,42,9,42z"/><polygon style="fill:#ffecb3" points="32 42 32 32 42 32"/><g><g><path style="fill:none;stroke:#fff;stroke-width:2;stroke-miterlimit:10" d="M32,20c0-4.418-3.582-8-8-8s-8,3.582-8,8 c0,3.357,2.069,6.226,5,7.413V35h6v-7.587C29.931,26.226,32,23.357,32,20z"/></g></g><rect style="fill:#fff" width="4" height="3" x="22" y="35"/><line style="fill:none;stroke:#fff;stroke-width:2;stroke-miterlimit:10" x1="21" x2="27" y1="31" y2="31"/></svg>